<svg xmlns="http://www.w3.org/2000/svg" viewBox="0 0 70.37 66.34"><defs><style>.cls-1{fill:#fff;}.cls-2{fill:#37bdb4;}.cls-3{fill:#ae1f23;}</style></defs><title>blIcons</title><g id="Layer_2" data-name="Layer 2"><g id="Layer_1-2" data-name="Layer 1"><path class="cls-1" d="M17,11.51,22.6,5.86c1.14-1.14,1.5-2.63.36-3.78s-2.63-.78-3.78.36L13.53,8.09,7.71,2.27C6.57,1.13,5.08.77,3.93,1.91s-.78,2.63.36,3.78l5.82,5.82L4.3,17.32C3.16,18.46,2.8,20,3.94,21.1s2.63.78,3.78-.36l5.81-5.81,5.63,5.63c1.14,1.14,2.63,1.5,3.78.36s.78-2.63-.36-3.78Z"/><path class="cls-1" d="M16,49.09v-8c0-1.61-.8-2.92-2.41-2.93s-2.42,1.31-2.42,2.93v8H2.93c-1.61,0-2.92.8-2.93,2.42s1.31,2.41,2.93,2.41h8.23v8.22c0,1.61.8,2.92,2.42,2.93S16,63.76,16,62.14V53.92h8c1.61,0,2.92-.8,2.92-2.42S25.57,49.09,24,49.08H16Z"/><path class="cls-2" d="M61.28,23H44.8a2.5,2.5,0,0,1-2.49-2.49v-17A2.51,2.51,0,0,1,44.8,1H57.93a.46.46,0,0,1,.46.47h0a.46.46,0,0,1-.46.46H44.8A1.57,1.57,0,0,0,43.23,3.5h0v17a1.57,1.57,0,0,0,1.57,1.57H61.28a1.57,1.57,0,0,0,1.57-1.57h0V14.44a.47.47,0,0,1,.46-.46h0a.47.47,0,0,1,.47.46h0v6.07a2.5,2.5,0,0,1-2.5,2.5Z"/><path class="cls-2" d="M51.49,11a.47.47,0,0,1-.38-.2.45.45,0,0,1,.12-.64L65.75.29a2.44,2.44,0,0,1,2-.15,3.81,3.81,0,0,1,1.91,1.54A3.88,3.88,0,0,1,70.37,4a2.46,2.46,0,0,1-.81,1.79A.46.46,0,0,1,69,5.11,1.52,1.52,0,0,0,69.49,4a3,3,0,0,0-.55-1.73l-.09-.12A3,3,0,0,0,67.43,1a1.55,1.55,0,0,0-1.21.09l-14.5,9.78A.63.63,0,0,1,51.49,11Z"/><path class="cls-2" d="M47.17,17.59a.44.44,0,0,1-.32-.17v-.1c-.19-.36,0-.54.61-1h0l.41-.29a23.6,23.6,0,0,0,1.71-4.46.46.46,0,0,1,.81-.15l2.1,3a.46.46,0,0,1-.12.64.45.45,0,0,1-.64-.11l-1.55-2.21A24.08,24.08,0,0,1,49,15.92,27.65,27.65,0,0,1,53.2,16L67,6.5,65,3.85a.45.45,0,1,1,.73-.54l2.25,3a.47.47,0,0,1,.08.35.44.44,0,0,1-.2.3L53.59,16.83a.49.49,0,0,1-.31.09,22.46,22.46,0,0,0-4.78,0l-.41.28H48A2,2,0,0,1,47.17,17.59Z"/><path class="cls-3" d="M63.88,66.34h-15a3.1,3.1,0,0,1-3.1-3.1h0V47a3.1,3.1,0,0,1,3.1-3.1H67.27a1.28,1.28,0,1,0,0-2.55H45.42a1.3,1.3,0,0,0-1.3,1.3.5.5,0,0,1-.5.5.5.5,0,0,1-.5-.5,2.29,2.29,0,0,1,2.3-2.29H67.27a2.29,2.29,0,1,1,0,4.58H48.82a2.1,2.1,0,0,0-2.1,2.1h0v16.3a2.1,2.1,0,0,0,2.1,2.1H63.88a2.1,2.1,0,0,0,2.1-2.1h0l0-14.56a.5.5,0,0,1,.5-.5.5.5,0,0,1,.5.5l0,14.56A3.1,3.1,0,0,1,63.88,66.34Z"/><path class="cls-3" d="M43.14,42.57a.49.49,0,0,1,.49-.51h0a.52.52,0,0,1,.51.49"/><path class="cls-3" d="M60.36,39.27a.5.5,0,0,1-.5-.5v-.6a.29.29,0,0,0-.28-.28H53.13a.28.28,0,0,0-.28.28v.6a.51.51,0,0,1-.5.5.5.5,0,0,1-.5-.5v-.6a1.27,1.27,0,0,1,1.28-1.27h6.45a1.27,1.27,0,0,1,1.27,1.27h0v.6a.49.49,0,0,1-.49.5Z"/><path class="cls-3" d="M50.54,63.59a.5.5,0,0,1-.5-.5V48.7a.5.5,0,0,1,.5-.5.51.51,0,0,1,.5.5V63.09A.5.5,0,0,1,50.54,63.59Z"/><path class="cls-3" d="M56.35,63.59a.5.5,0,0,1-.5-.5V48.7a.51.51,0,0,1,.5-.5.5.5,0,0,1,.5.5V63.09A.5.5,0,0,1,56.35,63.59Z"/><path class="cls-3" d="M62.19,63.59a.5.5,0,0,1-.5-.5V48.7a.51.51,0,0,1,.5-.5.5.5,0,0,1,.5.5V63.09A.5.5,0,0,1,62.19,63.59Z"/></g></g></svg>